<svg xmlns="http://www.w3.org/2000/svg" xmlns:xlink="http://www.w3.org/1999/xlink" width="32" height="32" viewBox="0 0 32 32">
  <defs>
    <path id="accessibility-a" d="M11.7158482,6.33833335 L12.0155612,11.7179212 L18.7979871,11.7206042 L18.7979871,14.2331471 L12.2647791,14.2305172 L12.3886787,15.9286214 L21.4134352,15.8673107 L25.2654096,24.8592086 L28.1906067,23.7915313 L29,25.7402973 L23.7730973,27.8129599 L19.7919688,18.3812083 L10.0856594,18.3785519 L9.1432238,4.9697874 C8.93656683,4.58324847 8.81261469,4.12360426 8.81261469,3.67439986 C8.81261469,2.2014026 10.0007477,1 11.4575401,1 C12.9143325,1 14.1025181,2.2014026 14.1025181,3.67439986 C14.1025181,5.04291925 13.0589871,6.21294927 11.7158482,6.33833335 Z M21.4778546,25.5683193 C19.8396265,28.8427563 16.4107393,31 12.753284,31 C7.38135888,31 3,26.5699043 3,21.1382235 C3,17.3244756 5.28594236,13.7804362 8.69701709,12.2093896 L8.91775595,15.1220458 C6.90021018,16.4075248 5.65648519,18.7269709 5.65648519,21.1582 C5.65648519,25.0985009 8.83484095,28.3121585 12.7317408,28.3121585 C16.2969807,28.3121585 19.3371448,25.5456332 19.7517198,21.9965732 L21.4778546,25.5683193 Z"/>
  </defs>
  <g fill="none" fill-rule="evenodd">
    <mask id="accessibility-b" fill="#fff">
      <use xlink:href="#accessibility-a"/>
    </mask>
    <use fill="#222" xlink:href="#accessibility-a"/>
    <g fill="#222" mask="url(#accessibility-b)">
      <rect width="32" height="32"/>
    </g>
  </g>
</svg>
